<?xml version="1.0" encoding="utf-8"?>
<!-- Generator: Adobe Illustrator 27.9.5, SVG Export Plug-In . SVG Version: 9.03 Build 54986)  -->
<svg version="1.1" xmlns="http://www.w3.org/2000/svg" xmlns:xlink="http://www.w3.org/1999/xlink" x="0px" y="0px"
	 viewBox="0 0 512 512" style="enable-background:new 0 0 512 512;" xml:space="preserve">
<style type="text/css">
	.st0{display:none;}
	.st1{display:inline;fill:#333D3D;}
</style>
<g id="Layer_2" class="st0">
	<rect class="st1" width="512" height="512"/>
</g>
<g id="Layer_1">
	<path d="M239.1,339.7c14.8-20.6,5-34.1,5-34.1c-6.8-10.9-18.9-14.6-46.4-18.5c-39-6.8-53-34.1-59.7-50.2
		c-6.7-16-16.6-30.3-16.6-30.3c-7-12.6,2.4-9.3,3.9-7.9c1.5,1.5,6.1,3.3,14.8,16.1c8.8,12.7,19.1,26.9,33.8,36.6
		c14.7,9.7,29.3,4.5,29.3,4.5c12.4-7.9-9.8-8.3-21.3-11.2c-18.6-4.4-21.4-17.2-21.4-17.2c-4.8-14.6,3.3-11.6,8.4-6.4
		c5.1,5.2,13.1,7.4,27.9,9.4c14.8,2,24.6,4.8,24.6,4.8c29.9,11.6,34.7,53.6,34.7,53.6C258.3,328.6,239.1,339.7,239.1,339.7z
		 M274.5,340.3c-15-20.4-5.4-34-5.4-34c6.7-11,18.7-14.8,46.1-19c38.9-7.3,52.6-34.7,59.2-50.8c6.5-16.1,16.2-30.5,16.2-30.5
		c6.9-12.7-2.5-9.3-4-7.8c-1.5,1.5-6,3.4-14.7,16.2c-8.6,12.8-18.8,27.2-33.4,37c-14.6,9.9-29.2,4.8-29.2,4.8
		c-12.5-7.7,9.7-8.4,21.2-11.5c18.5-4.6,21.2-17.4,21.2-17.4c4.6-14.7-3.5-11.6-8.5-6.3c-5,5.3-13,7.5-27.8,9.7
		c-14.8,2.2-24.6,5-24.6,5c-29.8,12-34,54-34,54C255.2,329.5,274.5,340.3,274.5,340.3z M245.7,176.9c-10.4-6.4-21.1-19.4-16.8-35.3
		l0,0c5-18.3,17-20.4,28.6-22.5c3.3-0.6,6.7-1.2,9.9-2.2c8.2-2.5,15.1-9.1,18-17.2c2.2-5.9,3.2-15.3-3.9-26.4
		c-3.8-5.9-9.5-10.1-17-12.6c-2.7-0.4-5.4-0.5-8-0.5c-32.8,0-59.4,26.7-59.4,59.4c0,28.5,20.3,53,48.3,58.4l3,0.6L245.7,176.9z
		 M264.2,61.7c7.2,2.4,12.7,6.5,16.4,12.2c6.9,10.8,5.9,19.8,3.8,25.5c-2.8,7.8-9.5,14.1-17.3,16.5c-3.1,1-6.5,1.6-9.8,2.1
		c-11.9,2.1-24.3,4.3-29.4,23.3l0,0c-4.1,15.2,4.9,27.9,14.8,34.9c-26-6.3-44.5-29.7-44.5-56.7c0-32.2,26.2-58.3,58.3-58.3
		C259,61.2,261.6,61.4,264.2,61.7z M315.9,119.5c0-29.6-22.1-54.9-51.5-58.9l-0.2,1.1c7.2,2.4,12.7,6.5,16.4,12.2
		c6.9,10.8,5.9,19.8,3.8,25.5c-2.8,7.8-9.5,14.1-17.3,16.5c-3.1,1-6.5,1.6-9.8,2.1c-11.9,2.1-24.3,4.3-29.4,23.3
		c-4.5,16.4,6.5,29.9,17.2,36.5l0.2,0.1c3.7,0.7,7.5,1.1,11.2,1.1C289.2,178.9,315.9,152.3,315.9,119.5z M228.9,141.6
		c5-18.3,17-20.4,28.6-22.5c3.3-0.6,6.7-1.2,9.9-2.2c8.2-2.5,15.1-9.1,18-17.2c2.2-5.9,3.2-15.3-3.9-26.4c-2.9-4.5-7-8.1-12.2-10.7
		c26.3,5.9,45.5,29.5,45.5,56.9c0,32.2-26.2,58.3-58.3,58.3c-3.6,0-7.3-0.3-10.9-1C235.2,170.4,224.6,157.4,228.9,141.6z
		 M315.3,119.5c0,32.5-26.4,58.9-58.9,58.9c-3.8,0-7.5-0.4-11.1-1.1c-11.7-7.1-21.2-20.5-17-35.9c6.5-23.9,24.7-20.7,38.8-25
		c14.2-4.4,26.8-22.5,13.8-42.8c-4.2-6.5-10.3-10.2-16.7-12.4C293.1,65.1,315.3,89.7,315.3,119.5z M263.6,147.1
		c0-3.9-3.2-7.1-7.1-7.1c-3.9,0-7.1,3.2-7.1,7.1c0,3.9,3.2,7.1,7.1,7.1C260.4,154.1,263.6,151,263.6,147.1z M256.5,81.2
		c-3.9,0-7.1,3.2-7.1,7.1c0,3.9,3.2,7.1,7.1,7.1c3.9,0,7.1-3.2,7.1-7.1C263.6,84.4,260.4,81.2,256.5,81.2z M331.3,100.2
		c1,1.6,2.7,2.7,4.7,3c2,0.2,3.9-0.5,5.3-1.8c-1-1.6-2.7-2.7-4.7-3C334.5,98.1,332.6,98.9,331.3,100.2 M303.9,190.7
		c1.8,4.9,5.8,8.5,10.4,10c2.5-4.2,3.1-9.5,1.3-14.4c-1.8-4.9-5.8-8.5-10.4-10C302.6,180.5,302,185.8,303.9,190.7z M321.4,174.9
		c3.4,3.3,7.9,4.8,12.3,4.3c0.5-4.4-1-8.9-4.3-12.2c-3.4-3.3-7.9-4.8-12.3-4.3C316.6,167,318,171.5,321.4,174.9z M333.3,156.7
		c3.5,2.1,7.6,2.4,11.1,1.2c-0.5-3.8-2.6-7.3-6.1-9.4c-3.5-2.1-7.6-2.4-11.1-1.2C327.7,151.1,329.8,154.6,333.3,156.7z M338.5,137.1
		c3,0.8,6.1,0.2,8.5-1.5c-1.2-2.7-3.5-4.8-6.5-5.7c-3-0.8-6.1-0.2-8.5,1.5C333.2,134.1,335.5,136.3,338.5,137.1z M340.4,119.9
		c2,0.5,4,0.1,5.5-1c-0.7-1.7-2.2-3.1-4.2-3.7c-2-0.5-4-0.1-5.5,1C336.9,117.9,338.4,119.3,340.4,119.9z M337.2,83.7
		c1.5,2.4,1.7,5.2,0.8,7.6c-2.6-0.3-5-1.8-6.5-4.1c-1.5-2.4-1.7-5.2-0.8-7.6C333.3,79.8,335.8,81.3,337.2,83.7z M355.4,102.8
		c-1.9,2-4.6,3-7.2,2.8c-0.4-2.6,0.4-5.3,2.3-7.3c1.9-2,4.6-3,7.2-2.8C358.1,98.1,357.3,100.8,355.4,102.8z M365.4,125.3
		c-3.8,2.2-8.1,2.4-11.8,0.9c0.6-4,3-7.6,6.7-9.8c3.8-2.2,8.1-2.4,11.8-0.9C371.5,119.5,369.2,123.2,365.4,125.3z M365.5,149.2
		c-4.2,1-8.4,0-11.6-2.5c1.7-3.6,5-6.5,9.2-7.5c4.2-1,8.4,0,11.6,2.5C373,145.4,369.7,148.2,365.5,149.2z M358.5,177.2
		c-4.3-0.2-8.1-2.5-10.4-5.7c2.7-3,6.7-4.8,11-4.5c4.3,0.2,8.1,2.5,10.4,5.7C366.8,175.7,362.9,177.5,358.5,177.2z M346.2,207.9
		c-5.3-1.9-9.2-6-11-11c4.5-2.8,10.1-3.6,15.4-1.7c5.3,1.9,9.2,6,11,11C357.1,208.9,351.5,209.7,346.2,207.9z M176.2,103.2
		c-2,0.2-3.9-0.5-5.3-1.8c1-1.6,2.7-2.7,4.7-3c2-0.2,3.9,0.5,5.3,1.8C179.9,101.8,178.2,102.9,176.2,103.2z M208.3,190.7
		c-1.8,4.9-5.8,8.5-10.4,10c-2.5-4.2-3.1-9.5-1.3-14.4c1.8-4.9,5.8-8.5,10.4-10C209.5,180.5,210.2,185.8,208.3,190.7z M190.8,174.9
		c-3.4,3.3-7.9,4.8-12.3,4.3c-0.5-4.4,1-8.9,4.3-12.2c3.4-3.3,7.9-4.8,12.3-4.3C195.6,167,194.1,171.5,190.8,174.9z M178.9,156.7
		c-3.5,2.1-7.6,2.4-11.1,1.2c0.5-3.8,2.6-7.3,6.1-9.4c3.5-2.1,7.6-2.4,11.1-1.2C184.5,151.1,182.4,154.6,178.9,156.7z M173.7,137.1
		c-3,0.8-6.1,0.2-8.5-1.5c1.2-2.7,3.5-4.8,6.5-5.7c3-0.8,6.1-0.2,8.5,1.5C179,134.1,176.7,136.3,173.7,137.1z M171.8,119.9
		c-2,0.5-4,0.1-5.5-1c0.7-1.7,2.2-3.1,4.2-3.7c2-0.5,4-0.1,5.5,1C175.3,117.9,173.8,119.3,171.8,119.9z M174.9,83.7
		c-1.5,2.4-1.7,5.2-0.8,7.6c2.6-0.3,5-1.8,6.5-4.1c1.5-2.4,1.7-5.2,0.8-7.6C178.8,79.8,176.4,81.3,174.9,83.7z M156.7,102.8
		c1.9,2,4.6,3,7.2,2.8c0.4-2.6-0.4-5.3-2.3-7.3c-1.9-2-4.6-3-7.2-2.8C154.1,98.1,154.8,100.8,156.7,102.8z M146.8,125.3
		c3.8,2.2,8.1,2.4,11.8,0.9c-0.6-4-3-7.6-6.7-9.8c-3.8-2.2-8.1-2.4-11.8-0.9C140.7,119.5,143,123.2,146.8,125.3z M146.7,149.2
		c4.2,1,8.4,0,11.6-2.5c-1.7-3.6-5-6.5-9.2-7.5c-4.2-1-8.4,0-11.6,2.5C139.2,145.4,142.5,148.2,146.7,149.2z M153.6,177.2
		c4.3-0.2,8.1-2.5,10.4-5.7c-2.7-3-6.7-4.8-11-4.5c-4.3,0.2-8.1,2.5-10.4,5.7C145.3,175.7,149.3,177.5,153.6,177.2z M166,207.9
		c5.3-1.9,9.2-6,11-11c-4.5-2.8-10.1-3.6-15.4-1.7c-5.3,1.9-9.2,6-11,11C155,208.9,160.7,209.7,166,207.9z M234.9,219.2L234.9,219.2
		c3.3,0.7,6.6,1.2,9.9,1.6l0.1,0c0.4,0,0.8,0.1,1.2,0.1c8.8,0.9,17.7,0.6,26.4-0.8c1.6-0.2,3.1-0.5,4.6-0.8v0
		c2.8-0.6,5.6-1.3,8.3-2.1c0.7-0.2,1.5-0.4,2.2-0.6c6.4-2,12.7-4.7,18.7-8c3.3-1.9,6.4-4,9.4-6.3l0,0h0
		c20.5-15.7,33.6-40.4,33.6-68.2c0-14.7-3.7-28.5-10.1-40.5c8.3,13.5,13,29.4,13,46.4c0,31.6-16.7,59.9-42.2,75.7l0,0l0,0
		c-4.8,3-9.9,5.5-15.2,7.5c-1.1,0.4-2.3,0.8-3.4,1.2c-23.5,8.3-49.3,8.1-72.7-0.6c-0.5-0.2-1-0.4-1.5-0.6c-4.2-1.6-8.2-3.5-12-5.6
		l-0.1,0l0,0c-27.3-15.3-45.4-44.6-45.4-77.5c0-17,4.8-32.9,13-46.4c-6.5,12.1-10.1,25.9-10.1,40.5c0,28.1,13.5,53,34.3,68.7l0,0
		l0.1,0c4.1,3.1,8.4,5.8,13,8.1c3.6,1.8,7.4,3.3,11.1,4.6c1.7,0.6,3.5,1.1,5.3,1.6C229.2,217.9,232,218.6,234.9,219.2z M289.4,176.5
		L289.4,176.5L289.4,176.5z M242.3,52.9c0.2,0.8,0.9,1.4,1.8,1.2c0.9-0.2,1.9-0.3,2.8-0.5c0.8-0.1,1.4-0.9,1.3-1.7
		c-0.1-0.8-0.8-1.3-1.6-1.3c-1.1,0.1-2.1,0.3-3.2,0.5C242.7,51.4,242.2,52.1,242.3,52.9z M231,56.3c0.3,0.8,1.2,1.2,1.9,0.9
		c0.9-0.3,1.8-0.7,2.7-0.9c0.8-0.3,1.2-1.1,1-1.9c-0.2-0.8-1-1.2-1.8-1c-1,0.3-2.1,0.7-3.1,1.1C231.1,54.7,230.7,55.5,231,56.3z
		 M220.5,61.6c0.4,0.7,1.3,1,2.1,0.5c0.8-0.5,1.7-1,2.5-1.4c0.7-0.4,1-1.3,0.6-2c-0.4-0.7-1.2-1-1.9-0.7c-1,0.5-1.9,1-2.8,1.6
		C220.3,60,220.1,60.9,220.5,61.6z M211,68.7c0.5,0.6,1.5,0.7,2.1,0.2c0.7-0.6,1.5-1.2,2.2-1.8c0.7-0.5,0.8-1.5,0.3-2.1
		c-0.5-0.6-1.4-0.8-2-0.3c-0.8,0.7-1.7,1.3-2.5,2C210.6,67.1,210.5,68,211,68.7z M202.9,77.2c0.6,0.5,1.6,0.4,2.1-0.2
		c0.6-0.7,1.2-1.5,1.9-2.2c0.6-0.6,0.5-1.6-0.1-2.1c-0.6-0.5-1.5-0.5-2.1,0.1c-0.7,0.8-1.4,1.6-2,2.4
		C202.2,75.8,202.3,76.7,202.9,77.2z M196.4,87.1c0.7,0.4,1.6,0.2,2.1-0.6c0.5-0.8,1-1.7,1.5-2.5c0.4-0.7,0.2-1.6-0.5-2.1
		c-0.7-0.4-1.6-0.2-2,0.4c-0.6,0.9-1.1,1.8-1.7,2.8C195.5,85.8,195.8,86.7,196.4,87.1z M191.8,97.9c0.8,0.3,1.6-0.1,1.9-0.9
		c0.3-0.9,0.7-1.8,1-2.7c0.3-0.8-0.1-1.7-0.8-2c-0.7-0.3-1.6,0-1.9,0.7c-0.4,1-0.8,2-1.2,3.1C190.6,96.8,191,97.6,191.8,97.9z
		 M189.1,109.4c0.8,0.1,1.6-0.4,1.7-1.2c0.2-1,0.4-1.9,0.5-2.8c0.2-0.8-0.3-1.6-1.2-1.8c-0.8-0.2-1.5,0.3-1.8,1
		c-0.2,1.1-0.4,2.1-0.6,3.2C187.7,108.5,188.3,109.3,189.1,109.4z M188.4,121.2c0.8,0,1.5-0.7,1.5-1.5c0-1,0-1.9,0-2.9
		c0-0.8-0.6-1.5-1.5-1.6c-0.8,0-1.4,0.6-1.5,1.3c0,0.9-0.1,1.8-0.1,2.7l0,0.5C186.9,120.6,187.6,121.2,188.4,121.2z M189.7,132.9
		c0.8-0.2,1.4-0.9,1.2-1.8c-0.2-0.9-0.3-1.9-0.5-2.8c-0.1-0.8-0.9-1.4-1.7-1.3c-0.8,0.1-1.3,0.8-1.3,1.6c0.1,1.1,0.3,2.1,0.5,3.2
		C188.2,132.5,188.9,133,189.7,132.9z M193.1,144.2c0.8-0.3,1.2-1.2,0.9-1.9c-0.3-0.9-0.6-1.8-0.9-2.7c-0.3-0.8-1.1-1.2-1.9-1
		c-0.8,0.2-1.2,1-1,1.8c0.3,1,0.7,2,1.1,3C191.5,144.1,192.3,144.5,193.1,144.2z M198.4,154.7c0.7-0.4,1-1.3,0.5-2.1
		c-0.5-0.8-1-1.7-1.4-2.5c-0.4-0.7-1.3-1-2-0.6c-0.7,0.4-1,1.2-0.7,1.9c0.5,1,1,1.9,1.6,2.8C196.8,154.9,197.7,155.1,198.4,154.7z
		 M205.4,164.2c0.6-0.5,0.7-1.5,0.2-2.1c-0.6-0.7-1.2-1.5-1.8-2.2c-0.5-0.7-1.5-0.8-2.1-0.3c-0.6,0.5-0.8,1.4-0.3,2
		c0.7,0.9,1.3,1.7,2,2.5C203.9,164.7,204.8,164.7,205.4,164.2z M214,172.3c0.5-0.6,0.4-1.6-0.2-2.1c-0.7-0.6-1.5-1.3-2.2-1.9
		c-0.6-0.6-1.6-0.5-2.1,0.1c-0.5,0.6-0.5,1.5,0.1,2.1c0.8,0.7,1.6,1.4,2.4,2C212.5,173,213.5,172.9,214,172.3z M223.8,178.8
		c0.4-0.7,0.2-1.6-0.6-2.1c-0.8-0.5-1.7-1-2.5-1.5c-0.7-0.4-1.6-0.2-2.1,0.5c-0.4,0.7-0.2,1.6,0.4,2c0.9,0.6,1.8,1.1,2.7,1.7
		C222.5,179.8,223.4,179.5,223.8,178.8z M234.6,183.5c0.3-0.8-0.1-1.6-0.9-1.9c-0.9-0.3-1.8-0.7-2.7-1c-0.8-0.3-1.7,0.1-2,0.8
		c-0.3,0.7,0,1.6,0.7,1.9c1,0.4,2,0.8,3,1.2C233.6,184.7,234.4,184.3,234.6,183.5z M246.1,186.3c0.1-0.8-0.4-1.6-1.2-1.7
		c-1-0.2-1.9-0.4-2.8-0.5c-0.8-0.2-1.6,0.3-1.8,1.2c-0.2,0.8,0.3,1.5,1,1.8c1.1,0.2,2.1,0.4,3.2,0.6
		C245.3,187.6,246,187,246.1,186.3z M257.9,187c0-0.8-0.7-1.5-1.5-1.5c-1,0-1.9,0-2.9,0c-0.8,0-1.5,0.6-1.6,1.4
		c0,0.8,0.6,1.5,1.3,1.6c1,0,1.9,0.1,2.9,0.1l0.4,0C257.3,188.4,257.9,187.8,257.9,187z M269.6,185.6c-0.2-0.8-0.9-1.4-1.8-1.2
		c-1,0.2-1.9,0.3-2.8,0.4c-0.8,0.1-1.4,0.9-1.3,1.7c0.1,0.8,0.8,1.3,1.6,1.3c1.1-0.1,2.1-0.3,3.1-0.5
		C269.2,187.2,269.7,186.4,269.6,185.6z M280.9,182.3c-0.3-0.8-1.2-1.2-1.9-0.9c-0.9,0.3-1.8,0.6-2.7,0.9c-0.8,0.3-1.2,1.1-1,1.9
		c0.2,0.8,1,1.2,1.8,1c1-0.3,2-0.7,3-1C280.8,183.9,281.2,183.1,280.9,182.3z M291.4,177c-0.4-0.7-1.3-1-2.1-0.5
		c-0.8,0.5-1.7,0.9-2.5,1.4c-0.7,0.4-1,1.3-0.6,2c0.4,0.7,1.2,1,1.9,0.7c1-0.5,1.9-1,2.8-1.6C291.7,178.6,291.9,177.7,291.4,177z
		 M300.9,170c-0.5-0.6-1.5-0.7-2.1-0.2c-0.7,0.6-1.5,1.2-2.2,1.8c-0.7,0.5-0.8,1.5-0.3,2.1c0.5,0.6,1.4,0.8,2,0.3
		c0.9-0.7,1.7-1.3,2.5-2.1C301.4,171.5,301.5,170.6,300.9,170z M309.1,161.5c-0.6-0.5-1.6-0.4-2.1,0.2c-0.6,0.7-1.2,1.5-1.9,2.2
		c-0.6,0.6-0.5,1.6,0.1,2.1c0.6,0.5,1.5,0.5,2.1-0.1c0.7-0.8,1.4-1.6,2.1-2.4C309.8,162.9,309.7,162,309.1,161.5z M315.6,151.6
		c-0.7-0.4-1.6-0.2-2.1,0.6l0,0c-0.5,0.8-1,1.7-1.5,2.5c-0.4,0.7-0.2,1.6,0.5,2.1c0.7,0.4,1.6,0.2,2-0.4c0.6-0.9,1.1-1.8,1.6-2.7
		C316.6,153,316.3,152.1,315.6,151.6z M320.3,140.8c-0.8-0.3-1.6,0.1-1.9,0.9c-0.3,0.9-0.7,1.8-1,2.7c-0.3,0.8,0.1,1.7,0.8,2
		c0.7,0.3,1.6,0,1.9-0.7c0.4-1,0.8-2,1.2-3C321.5,141.9,321.1,141.1,320.3,140.8z M323.1,129.4c-0.8-0.1-1.6,0.4-1.7,1.2
		c-0.2,1-0.4,1.9-0.6,2.8c-0.2,0.8,0.3,1.6,1.2,1.8c0.8,0.2,1.5-0.3,1.8-1c0.2-1.1,0.4-2.1,0.6-3.2
		C324.4,130.2,323.9,129.5,323.1,129.4z M323.8,117.6c-0.8,0-1.5,0.7-1.5,1.5c0,1,0,1.9-0.1,2.9c0,0.8,0.6,1.5,1.5,1.6
		c0.8,0,1.5-0.6,1.6-1.3c0-1,0.1-2,0.1-3l0-0.2C325.3,118.2,324.6,117.6,323.8,117.6z M322.5,105.9c-0.8,0.1-1.4,0.9-1.2,1.8
		c0.2,0.9,0.3,1.9,0.4,2.9c0.1,0.8,0.9,1.4,1.7,1.3c0.8-0.1,1.4-0.8,1.3-1.6c-0.1-1-0.3-2.1-0.5-3.1
		C324.1,106.3,323.3,105.7,322.5,105.9z M319.2,94.6c-0.8,0.3-1.2,1.2-0.9,1.9c0.3,0.9,0.6,1.8,0.9,2.7c0.3,0.8,1.1,1.2,1.9,1
		c0.8-0.2,1.2-1,1-1.8c-0.3-1-0.6-2-1-2.9C320.8,94.7,320,94.3,319.2,94.6z M314,84c-0.7,0.4-1,1.3-0.5,2.1c0.5,0.8,0.9,1.7,1.4,2.5
		c0.4,0.7,1.3,1,2,0.6c0.7-0.4,1-1.2,0.7-1.9c-0.5-1-1-1.9-1.6-2.8C315.5,83.8,314.6,83.6,314,84z M307,74.5
		c-0.6,0.5-0.7,1.5-0.2,2.1c0.6,0.7,1.2,1.5,1.8,2.3c0.5,0.7,1.5,0.8,2.1,0.3c0.6-0.5,0.8-1.4,0.3-2c-0.7-0.9-1.3-1.7-2-2.5
		C308.5,74,307.6,74,307,74.5z M298.4,66.3c-0.5,0.6-0.4,1.6,0.2,2.1c0.7,0.6,1.5,1.3,2.2,1.9c0.6,0.6,1.6,0.5,2.1-0.1
		c0.5-0.6,0.5-1.5,0-2.1c-0.8-0.7-1.6-1.4-2.4-2.1C299.8,65.6,298.9,65.7,298.4,66.3z M288.6,59.8c-0.4,0.7-0.2,1.6,0.6,2.1
		c0.8,0.5,1.7,1,2.5,1.5c0.7,0.4,1.6,0.2,2.1-0.5c0.4-0.7,0.2-1.6-0.4-2c-0.9-0.6-1.8-1.1-2.7-1.6C289.9,58.8,289,59.1,288.6,59.8z
		 M277.8,55.1c-0.3,0.8,0.1,1.6,0.9,1.9c0.9,0.3,1.8,0.7,2.7,1c0.8,0.3,1.7-0.1,2-0.8c0.3-0.7,0-1.6-0.7-1.9c-1-0.4-2-0.8-3-1.2
		C278.9,53.9,278.1,54.3,277.8,55.1z M266.4,52.3c-0.1,0.8,0.4,1.6,1.2,1.7c0.9,0.2,1.9,0.4,2.8,0.6c0.8,0.2,1.6-0.3,1.8-1.2
		c0.2-0.8-0.3-1.5-1-1.8c-1.1-0.2-2.1-0.4-3.2-0.6C267.2,50.9,266.5,51.5,266.4,52.3z M256.1,50l-0.7,0c-0.8,0.1-1.4,0.7-1.4,1.5
		c0,0.8,0.7,1.5,1.5,1.5c1.2,0,2.3,0,3.4,0.1c0.8,0,1.5-0.6,1.6-1.5c0-0.8-0.6-1.5-1.3-1.6C258.2,50,257.1,50,256.1,50z M230.4,189
		c0.7,0.8,1.1,1.9,0.9,3.1c-0.2,1.2-0.9,2.1-1.8,2.7c-0.7-0.8-1.1-1.9-0.9-3.1C228.8,190.5,229.5,189.6,230.4,189 M250.1,198.7
		c0,1.8-0.8,3.5-2.1,4.6c-1.3-1.1-2.2-2.7-2.2-4.5c0-1.8,0.8-3.5,2.1-4.6C249.2,195.2,250.1,196.8,250.1,198.7z M240.1,197.1
		c0,1.2-0.5,2.2-1.4,2.9c-0.9-0.7-1.4-1.7-1.4-2.9c0-1.2,0.5-2.2,1.4-2.9C239.5,194.9,240.1,195.9,240.1,197.1z M220.2,189.9
		c1.1,1.2,2.7,1.7,4.2,1.6c0.2-1.5-0.2-3.1-1.4-4.3c-1.1-1.2-2.7-1.7-4.2-1.6C218.6,187.1,219.1,188.7,220.2,189.9z M228.3,203
		c1.4-0.8,2.4-2.1,2.6-3.6c-1.4-0.6-3-0.6-4.5,0.2c-1.4,0.8-2.4,2.1-2.6,3.6C225.2,203.8,226.8,203.8,228.3,203z M239.4,212
		c1.8-1.8,2.6-4.2,2.3-6.5c-2.3-0.3-4.7,0.5-6.5,2.3c-1.8,1.8-2.6,4.2-2.3,6.5C235.2,214.6,237.6,213.8,239.4,212z M252.8,215.6
		c1.2-2.2,1.2-4.8,0.3-6.9c-2.3,0.4-4.4,1.8-5.6,4.1c-1.2,2.2-1.2,4.8-0.3,6.9C249.5,219.3,251.6,217.9,252.8,215.6z M278.9,192.1
		c0.2,1.2,0.9,2.1,1.8,2.7c0.7-0.8,1.1-1.9,0.9-3.1c-0.2-1.2-0.9-2.1-1.8-2.7C279.1,189.8,278.7,191,278.9,192.1z M260.2,198.7
		c0,1.8,0.8,3.5,2.1,4.6c1.3-1.1,2.2-2.7,2.2-4.5c0-1.8-0.8-3.5-2.1-4.6C261,195.2,260.2,196.8,260.2,198.7z M270.1,197.1
		c0,1.2,0.5,2.2,1.4,2.9c0.9-0.7,1.4-1.7,1.4-2.9c0-1.2-0.5-2.2-1.4-2.9C270.7,194.9,270.1,195.9,270.1,197.1z M290,189.9
		c-1.1,1.2-2.7,1.7-4.2,1.6c-0.2-1.5,0.2-3.1,1.4-4.3c1.1-1.2,2.7-1.7,4.2-1.6C291.6,187.1,291.1,188.7,290,189.9z M282,203
		c-1.4-0.8-2.4-2.1-2.6-3.6c1.4-0.6,3-0.6,4.5,0.2c1.4,0.8,2.4,2.1,2.6,3.6C285,203.8,283.4,203.8,282,203z M270.8,212
		c-1.8-1.8-2.6-4.2-2.3-6.5c2.3-0.3,4.7,0.5,6.5,2.3c1.8,1.8,2.6,4.2,2.3,6.5C275,214.6,272.6,213.8,270.8,212z M257.4,215.6
		c-1.2-2.2-1.2-4.8-0.3-6.9c2.3,0.4,4.4,1.8,5.6,4.1c1.2,2.2,1.2,4.8,0.3,6.9C260.7,219.3,258.6,217.9,257.4,215.6z M263.6,204.4
		c8.2-2.2,15.5-6.4,21.3-11.8c-6.3,6.7-14.6,11.8-24.1,14.3c-1.9,0.5-3.7,0.9-5.6,1.2c-1.9-0.3-3.7-0.7-5.6-1.2
		c-9.6-2.6-17.8-7.6-24.1-14.3c5.8,5.5,13,9.6,21.3,11.8c2.8,0.8,5.6,1.3,8.4,1.5C257.9,205.6,260.7,205.1,263.6,204.4z M65.2,368.4
		v40.3c0,4.1,2.1,6.2,6.2,6.2h6.2v-6.2c-2.1,0-3.1-1-3.1-3.1v-37.2H65.2z M93.2,389.8c0-1.9,1-2.8,3.1-2.8v-6.2l-7.1-2.6v-2.1h7.1
		v-7.8h-14v15l4.7,1.1c-2.1,1-3.1,2.4-3.1,4v17.1c0,6.2,4.7,9.3,14,9.3s14-3.1,14-9.3v-27.9c0-2.1,1.6-3.1,4.7-3.1
		c3.1,0,4.7,1,4.7,3.1v37.2h9.3v-37.2c0-6.2-4.7-9.3-14-9.3s-14,3.1-14,9.3v27.9c0,2.1-1.6,3.1-4.7,3.1c-3.1,0-4.7-1-4.7-3.1V389.8z
		 M149,414.9v-37.2c0-6.2-4.7-9.3-14-9.3h-3.1v7.8h3.1c3.1,0,4.7,1,4.7,3.1v35.7H149z M111.8,426c0-2.2,1.6-3.3,4.7-3.3
		c3.1,0,4.7,1.1,4.7,3.3v10.6h9.3V426c0-5.3-4.7-8-14-8s-14,2.7-14,8v10.6h9.3v-0.4l5.8-6.9l-2.8-2.8l-3,3.3V426z M186.2,377.7
		c0-6.2-4.7-9.3-14-9.3s-14,3.1-14,9.3v27.9c0,6.2,2.3,9.3,7,9.3h7v-6.2c-3.1,0-4.7-1-4.7-3.1v-27.9c0-2.1,1.6-3.1,4.7-3.1
		c3.1,0,4.7,1,4.7,3.1v27.9c0,6.2,4.7,9.3,14,9.3s14-3.1,14-9.3v-37.2h-9.3v37.2c0,2.1-1.6,3.1-4.7,3.1c-3.1,0-4.7-1-4.7-3.1V377.7z
		 M223.4,363.7v-20.2h-9.3v12.4h-4.7v7.8H223.4z M214.1,368.4v40.3c0,4.1,2.1,6.2,6.2,6.2h6.2v-6.2c-2.1,0-3.1-1-3.1-3.1v-37.2
		H214.1z M251.4,396.3v9.3c-2.1,2.1-4.1,3.1-6.2,3.1c-2.1,0-3.1-1-3.1-3.1v-8l2.3-0.8c10.9-3.7,16.3-8.5,16.3-14.4v-10.9
		c0-2.1-1.5-3.1-4.6-3.1h-4.7l-4.7,4.5l-4.7-4.5h-4.7c-3,0-4.6,1-4.6,3.1v12.4c0,2.1,1.6,3.1,4.7,3.1h6.2v-6.2h-1.6v-3.3l4.7,4.5
		l4.7-4.5v4.9c0,3.7-3.1,6.5-9.3,8.7l-9.3,3.2v11.4c0,6.2,2.6,9.3,7.8,9.3h4.7c2.4,0,4.4-0.5,6.2-1.4v2.9h9.3v-20.2H251.4z
		 M270,411.8c0,2.1,1.5,3.1,4.6,3.1h4.7l4.7-4.5l4.7,4.5h4.7c3,0,4.6-1,4.6-3.1v-18.6l-9.3-2.5c-6.2-1.7-9.3-4-9.3-6.8v-6.2
		c0-2.1,1.6-3.1,4.7-3.1c3.1,0,4.7,1,4.7,3.1v3.1H287v6.2h6.2c3.1,0,4.7-1,4.7-3.1v-6.2c0-6.2-4.7-9.3-14-9.3s-14,3.1-14,9.3v6.2
		c0,5.1,5.4,9.3,16.3,12.6l2.3,0.6v8.8l-4.7-4.5l-4.7,4.5v-9.5H270V411.8z M316.5,363.7v-20.2h-9.3v12.4h-4.7v7.8H316.5z
		 M307.2,368.4v40.3c0,4.1,2.1,6.2,6.2,6.2h6.2v-6.2c-2.1,0-3.1-1-3.1-3.1v-37.2H307.2z M335.1,389.8c0-1.9,1-2.8,3.1-2.8v-6.2
		l-7.1-2.6v-2.1h7.1v-7.8h-14v15l4.7,1.1c-2.1,1-3.1,2.4-3.1,4v17.1c0,6.2,4.7,9.3,14,9.3s14-3.1,14-9.3v-27.9
		c0-2.1,1.6-3.1,4.7-3.1c3.1,0,4.7,1,4.7,3.1v37.2h9.3v-37.2c0-6.2-4.7-9.3-14-9.3s-14,3.1-14,9.3v27.9c0,2.1-1.6,3.1-4.7,3.1
		c-3.1,0-4.7-1-4.7-3.1V389.8z M372.3,365.3v-7.8h-11.8l-2.2,1.6l-2.2-1.6h-11.8v7.8H372.3z M381.6,411.8c0,2.1,1.5,3.1,4.6,3.1h4.7
		l4.7-4.5l4.7,4.5h4.7c3,0,4.6-1,4.6-3.1v-18.6l-9.3-2.5c-6.2-1.7-9.3-4-9.3-6.8v-6.2c0-2.1,1.6-3.1,4.7-3.1c3.1,0,4.7,1,4.7,3.1
		v3.1h-1.6v6.2h6.2c3.1,0,4.7-1,4.7-3.1v-6.2c0-6.2-4.7-9.3-14-9.3s-14,3.1-14,9.3v6.2c0,5.1,5.4,9.3,16.3,12.6l2.3,0.6v8.8
		l-4.7-4.5l-4.7,4.5v-9.5h-9.3V411.8z M418.9,379.2h23.3c3.1,0,4.7-1.6,4.7-4.7v-9.3h-9.3v7.8h-9.3v-1.6h1.6v-3.1h-10.9V379.2z
		 M418.9,382.3v29.5c0,2.1,1.5,3.1,4.6,3.1h4.7l4.7-4.5l4.7,4.5h4.7c3,0,4.6-1,4.6-3.1v-29.5h-9.3v23.5l-4.7-4.5l-4.7,4.5v-23.5
		H418.9z M428.9,357.5h8.5c5.2,0,7.8-1,7.8-3.1v-4.7h-8.5c0,3.1-1.4,4.7-4.2,4.7h-12v9.3H433v-3.4h-4V357.5z M90.9,452.7h-7.5v0.9
		c2.8,0.2,3,0.4,3,2.6v2.4c0,1.2-0.4,1.5-1,1.9c-0.6,0.3-1.5,0.5-2.5,0.5c-5.7,0-8.1-4.6-8.1-9.3c0-5.4,2.9-8.4,7.4-8.4
		c0.9,0,2.1,0.1,2.7,0.4c1.8,0.6,2.7,1.7,3.4,4.2l0.9-0.2c-0.2-1.8-0.4-3.6-0.4-4.7c-0.9-0.1-3.1-0.7-6.1-0.7
		c-5.9,0-10.9,3.7-10.9,9.9c0,5.9,4,10,10.7,10c2.5,0,4.8-0.6,6.7-1.1c-0.1-0.8-0.2-1.8-0.2-2.8v-2.5c0-1.7,0.1-1.9,1.9-2.1V452.7z
		 M94,452.2c0,5.5,4.1,9.8,9.7,9.8c5.4,0,9.7-3.9,9.7-10.2c0-5.8-4.5-9.7-9.5-9.7C97.7,442.1,94,447,94,452.2z M110.4,452.6
		c0,5.7-2.7,8.3-6.2,8.3c-4.2,0-7.2-4-7.2-9.5c0-5.5,3-8.2,6.3-8.2C107.1,443.2,110.4,446.4,110.4,452.6z M130,456.5
		c-0.4,1.1-1.1,2.3-1.8,3c-0.7,0.7-1.1,0.9-2.6,0.9c-0.2,0-2.3,0-2.3,0c-1.7,0-1.9-0.4-1.9-2.2v-11.9c0-2.5,0.3-2.6,2.7-2.9v-0.8
		h-7.9v0.8c2.3,0.2,2.6,0.4,2.6,2.9v11.6c0,2.5-0.2,2.6-2.9,2.9v0.8h13.6c0.3-0.9,1.2-4,1.3-4.9L130,456.5z M132.9,442.5v0.8
		c2.3,0.2,2.6,0.4,2.6,2.9v11.7c0,2.4-0.1,2.6-2.6,2.8v0.8h6.9c3.6,0,6.5-0.6,8.7-2.3c2.3-1.7,3.7-4.5,3.7-7.9
		c0-2.8-1.1-4.9-2.5-6.3c-1.8-1.7-4.4-2.6-8.6-2.6H132.9z M138.1,445.6c0-1.1,0.1-1.5,0.4-1.6c0.3-0.2,1-0.4,2.3-0.4
		c2,0,3.7,0.3,5,1.2c2.3,1.4,3.4,3.8,3.4,7c0,5.1-2.7,8.7-8,8.7c-2.2,0-3.1-0.6-3.1-2.8V445.6z M169.3,456.7c-0.4,0.9-1,2.1-1.6,2.7
		c-0.6,0.8-0.9,1-2.7,1h-2.7c-1.5,0-2.1-0.2-2.1-2.3v-5.8h3.2c2.1,0,2.3,0.3,2.7,2.4h0.9v-6h-0.9c-0.4,2-0.5,2.4-2.7,2.4h-3.3v-6.5
		c0-0.9,0.1-0.9,1-0.9h2.8c1.8,0,2.4,0.2,2.9,1.2c0.3,0.6,0.6,1.2,0.9,2.2l0.9-0.1c-0.1-1.6-0.2-3.8-0.3-4.5c-0.4,0-1.5,0.1-4.3,0.1
		h-9v0.8c2.2,0.2,2.5,0.4,2.5,3v11.6c0,2.4-0.2,2.7-2.9,2.9v0.8h14.3c0.3-0.9,1.1-3.9,1.3-4.7L169.3,456.7z M192.4,442.5h-7.2v0.8
		c2.3,0.1,3,0.6,3.1,1.9c0.1,0.9,0.1,2.1,0.1,4.9v7.2L176,442.5h-4.4v0.8c1.4,0.1,2.1,0.3,2.6,1.1c0.5,0.6,0.6,1.1,0.6,1.9v7.5
		c0,2.7-0.1,4-0.1,4.9c-0.1,1.4-0.8,1.9-2.6,2v0.8h7.1v-0.8c-2.1-0.2-2.8-0.6-2.9-2.1c-0.1-0.9-0.1-2.2-0.1-4.8v-7.3l12.5,15.3h1.1
		v-11.8c0-2.7,0.1-4,0.1-4.9c0.1-1.3,0.7-1.6,2.6-1.8V442.5z M221.8,442.5h-7.9v0.8c2.3,0.2,2.7,0.4,2.7,2.8v4.7h-10v-4.7
		c0-2.4,0.3-2.6,2.6-2.8v-0.8h-7.8v0.8c2.4,0.2,2.6,0.4,2.6,2.8v11.8c0,2.5-0.3,2.6-2.6,2.8v0.8h7.8v-0.8c-2.4-0.3-2.6-0.4-2.6-2.8
		v-5.9h10v5.9c0,2.5-0.2,2.5-2.7,2.8v0.8h7.9v-0.8c-2.4-0.3-2.7-0.4-2.7-2.8v-11.8c0-2.5,0.2-2.6,2.7-2.8V442.5z M242.3,461.6v-0.8
		c-2.1-0.2-2.3-0.5-3.3-3c-1.8-5.1-3.9-10.6-5.7-15.6l-0.9,0.2l-6.1,15.4c-1,2.6-1.5,2.8-3.3,3.1v0.8h6.8v-0.8
		c-2.4-0.3-2.8-0.5-2.2-2.4c0.4-1.2,0.9-2.3,1.3-3.7h6.3c0.6,1.8,1.2,3.3,1.6,4.5c0.4,1.1,0.2,1.4-1.7,1.6v0.8H242.3z M234.8,453.4
		h-5.5c0.9-2.3,1.9-5,2.8-7.5L234.8,453.4z M263.8,442.5h-7.2v0.8c2.3,0.1,3,0.6,3.1,1.9c0.1,0.9,0.1,2.1,0.1,4.9v7.2l-12.4-14.7
		h-4.4v0.8c1.4,0.1,2.1,0.3,2.6,1.1c0.5,0.6,0.6,1.1,0.6,1.9v7.5c0,2.7-0.1,4-0.1,4.9c-0.1,1.4-0.8,1.9-2.6,2v0.8h7.1v-0.8
		c-2.1-0.2-2.8-0.6-2.9-2.1c-0.1-0.9-0.1-2.2-0.1-4.8v-7.3l12.5,15.3h1.1v-11.8c0-2.7,0.1-4,0.1-4.9c0.1-1.3,0.7-1.6,2.6-1.8V442.5z
		 M266.1,442.5v0.8c2.3,0.2,2.6,0.4,2.6,2.9v11.7c0,2.4-0.1,2.6-2.6,2.8v0.8h6.9c3.6,0,6.5-0.6,8.7-2.3c2.3-1.7,3.7-4.5,3.7-7.9
		c0-2.8-1.1-4.9-2.5-6.3c-1.8-1.7-4.4-2.6-8.6-2.6H266.1z M271.3,445.6c0-1.1,0.1-1.5,0.4-1.6c0.3-0.2,1-0.4,2.3-0.4
		c2,0,3.7,0.3,5,1.2c2.3,1.4,3.4,3.8,3.4,7c0,5.1-2.7,8.7-8,8.7c-2.2,0-3.1-0.6-3.1-2.8V445.6z M299.3,446.8
		c-0.2-1.9-0.4-3.1-0.5-4.1c-0.6-0.1-2.2-0.6-3.9-0.6c-3.9,0-6,2.5-6,5.1c0,2.7,1.7,4.1,4.8,5.8c2.6,1.4,3.8,2.3,3.8,4.6
		c0,1.9-1.3,3.4-3.4,3.4c-3,0-4.3-2.6-4.9-4.5l-0.9,0.2c0.2,1.6,0.6,3.6,0.8,4.4c1.2,0.5,2.7,1,4.5,1c3.8,0,6.5-2.3,6.5-5.4
		c0-2.8-1.5-4.1-5-6c-2.4-1.3-3.7-2.3-3.7-4.3c0-1.5,0.8-3.2,3.1-3.2c2.8,0,3.6,1.9,4.1,3.8L299.3,446.8z M333.6,461.6v-0.8
		c-2.6-0.3-2.7-0.4-2.8-3.5l-0.1-11.3c-0.1-2.1,0.3-2.3,2.8-2.6v-0.8h-5.1l-6.9,14.9l-6.5-14.9h-5.1v0.8c2.6,0.2,2.9,0.7,2.8,2.3
		c-0.8,10.7-0.8,11.8-1,13c-0.2,1.6-0.9,1.9-2.6,2.1v0.8h6.9v-0.8c-2-0.2-2.7-0.4-2.8-2.1c0-0.6,0-2.9,0.5-13.1
		c2.2,5.3,5.5,13.4,6.5,16h0.8c1-2.6,4.9-11,7.3-16.3l0,12c0,3.1-0.1,3.3-2.5,3.5v0.8H333.6z M354,461.6v-0.8
		c-2.1-0.2-2.3-0.5-3.3-3c-1.8-5.1-3.9-10.6-5.7-15.6l-0.9,0.2l-6.1,15.4c-1,2.6-1.5,2.8-3.3,3.1v0.8h6.8v-0.8
		c-2.4-0.3-2.8-0.5-2.2-2.4c0.4-1.2,0.9-2.3,1.3-3.7h6.3c0.6,1.8,1.2,3.3,1.6,4.5c0.4,1.1,0.2,1.4-1.7,1.6v0.8H354z M346.5,453.4
		H341c0.9-2.3,1.9-5,2.8-7.5L346.5,453.4z M366.7,446.8c-0.2-1.9-0.4-3.1-0.5-4.1c-0.6-0.1-2.2-0.6-3.9-0.6c-3.9,0-6,2.5-6,5.1
		c0,2.7,1.7,4.1,4.8,5.8c2.6,1.4,3.8,2.3,3.8,4.6c0,1.9-1.3,3.4-3.4,3.4c-3,0-4.3-2.6-4.9-4.5l-0.9,0.2c0.2,1.6,0.6,3.6,0.8,4.4
		c1.2,0.5,2.7,1,4.5,1c3.8,0,6.5-2.3,6.5-5.4c0-2.8-1.5-4.1-5-6c-2.4-1.3-3.7-2.3-3.7-4.3c0-1.5,0.8-3.2,3.1-3.2
		c2.8,0,3.6,1.9,4.1,3.8L366.7,446.8z M381.4,446.8c-0.2-1.9-0.4-3.1-0.5-4.1c-0.6-0.1-2.2-0.6-3.9-0.6c-3.9,0-6,2.5-6,5.1
		c0,2.7,1.7,4.1,4.8,5.8c2.6,1.4,3.8,2.3,3.8,4.6c0,1.9-1.3,3.4-3.4,3.4c-3,0-4.3-2.6-4.9-4.5l-0.9,0.2c0.2,1.6,0.6,3.6,0.8,4.4
		c1.2,0.5,2.7,1,4.5,1c3.8,0,6.5-2.3,6.5-5.4c0-2.8-1.5-4.1-5-6c-2.4-1.3-3.7-2.3-3.7-4.3c0-1.5,0.8-3.2,3.1-3.2
		c2.8,0,3.6,1.9,4.1,3.8L381.4,446.8z M403.2,461.6v-0.8c-2.1-0.2-2.3-0.5-3.3-3c-1.8-5.1-3.9-10.6-5.7-15.6l-0.9,0.2l-6.1,15.4
		c-1,2.6-1.5,2.8-3.3,3.1v0.8h6.8v-0.8c-2.4-0.3-2.8-0.5-2.2-2.4c0.4-1.2,0.9-2.3,1.3-3.7h6.3c0.6,1.8,1.2,3.3,1.6,4.5
		c0.4,1.1,0.2,1.4-1.7,1.6v0.8H403.2z M395.7,453.4h-5.5c0.9-2.3,1.9-5,2.8-7.5L395.7,453.4z M423.4,452.7h-7.5v0.9
		c2.8,0.2,3,0.4,3,2.6v2.4c0,1.2-0.4,1.5-1,1.9c-0.6,0.3-1.5,0.5-2.5,0.5c-5.7,0-8.1-4.6-8.1-9.3c0-5.4,2.9-8.4,7.4-8.4
		c0.9,0,2.1,0.1,2.7,0.4c1.8,0.6,2.7,1.7,3.4,4.2l0.9-0.2c-0.2-1.8-0.4-3.6-0.4-4.7c-0.9-0.1-3.1-0.7-6.1-0.7
		c-5.9,0-10.9,3.7-10.9,9.9c0,5.9,4,10,10.7,10c2.5,0,4.8-0.6,6.7-1.1c-0.1-0.8-0.2-1.8-0.2-2.8v-2.5c0-1.7,0.1-1.9,1.9-2.1V452.7z
		 M440,456.7c-0.4,0.9-1,2.1-1.6,2.7c-0.6,0.8-0.9,1-2.7,1H433c-1.5,0-2.1-0.2-2.1-2.3v-5.8h3.2c2.1,0,2.3,0.3,2.7,2.4h0.9v-6h-0.9
		c-0.4,2-0.5,2.4-2.7,2.4h-3.3v-6.5c0-0.9,0.1-0.9,1-0.9h2.8c1.8,0,2.4,0.2,2.9,1.2c0.3,0.6,0.6,1.2,0.9,2.2l0.9-0.1
		c-0.1-1.6-0.2-3.8-0.3-4.5c-0.4,0-1.5,0.1-4.3,0.1h-9v0.8c2.2,0.2,2.5,0.4,2.5,3v11.6c0,2.4-0.2,2.7-2.9,2.9v0.8h14.3
		c0.3-0.9,1.1-3.9,1.3-4.7L440,456.7z"/>
</g>
</svg>
